<?xml version="1.0" encoding="UTF-8"?>
<svg version="1.1" xmlns="http://www.w3.org/2000/svg" width="600" height="524">
<path d="M0 0 C3.92429236 1.49902952 7.63725696 3.26741553 11.38671875 5.16015625 C12.82075382 5.88176651 14.2548406 6.60327402 15.68896484 7.32470703 C16.92595123 7.94820038 16.92595123 7.94820038 18.18792725 8.58428955 C27.31059362 13.17700647 36.44690623 17.74272298 45.5795002 22.31566429 C49.03897352 24.04799024 52.49805669 25.78108652 55.95629883 27.51586914 C76.97828354 38.06098992 76.97828354 38.06098992 98.19555664 48.20605469 C102.04192971 50.00474331 105.8339268 51.90004594 109.625 53.8125 C142.80552359 70.453359 176.09311082 86.07349999 213 92 C214.07378906 92.19207031 215.14757812 92.38414063 216.25390625 92.58203125 C234.91705994 94.66436435 253.77426082 93.31189448 272 89 C273.29695801 88.69449219 273.29695801 88.69449219 274.62011719 88.3828125 C310.56220411 79.60389342 343.94872196 60.95997599 377.00878906 44.83178711 C384.52286969 41.16659818 392.05098209 37.54024747 399.625 34 C405.96425924 31.03185504 412.14656491 27.83768909 418.30688477 24.51586914 C425.27001811 20.79151483 432.38599711 17.4049151 439.52856445 14.0402832 C443.97576206 11.94194447 448.39551484 9.82396182 452.7421875 7.5234375 C453.45818115 7.14775635 454.1741748 6.7720752 454.91186523 6.38500977 C456.20786367 5.69881944 457.49725553 4.99990732 458.77758789 4.28491211 C463.46546312 1.81571593 466.82866008 1.51417475 472 2 C475.21954645 4.53453657 476.70432435 6.11297305 478 10 C478.09866867 12.41562371 478.14174821 14.80252736 478.13803101 17.21826172 C478.14085229 17.95879288 478.14367357 18.69932404 478.14658034 19.46229553 C478.15493331 21.95143671 478.15626527 24.44053344 478.15771484 26.9296875 C478.16238307 28.71208827 478.16752664 30.49448785 478.17311096 32.27688599 C478.18440112 36.12208952 478.19283137 39.96728527 478.19923019 43.8125 C478.20992208 49.90888337 478.23017508 56.00521143 478.25234985 62.1015625 C478.31421806 79.44040359 478.3681198 96.77924278 478.40136719 114.11816406 C478.41980096 123.68958427 478.44885416 133.26091301 478.4893719 142.83226585 C478.51031292 147.89045857 478.52588051 152.94853659 478.52817917 158.0067749 C478.5303508 162.78060968 478.54647175 167.55420659 478.57256889 172.3279686 C478.57967147 174.06476396 478.58190779 175.80158845 478.57846642 177.53839493 C478.50069772 224.31734048 498.23764135 267.34956168 517.51806641 308.9987793 C528.90525897 333.62152433 528.90525897 333.62152433 527 340 C522.70770082 345.48051076 516.48791062 348.53383868 510.5625 352 C508.89392944 352.98794556 508.89392944 352.98794556 507.19165039 353.99584961 C504.89954382 355.35188365 502.60550771 356.70466139 500.30957031 358.05419922 C497.30341655 359.82161184 494.30273457 361.59778844 491.3046875 363.37890625 C479.77874241 370.22054899 468.20178645 376.97424933 456.62109375 383.72265625 C447.35226098 389.124928 438.08648684 394.53141751 428.8984375 400.0703125 C428.02155273 400.59866699 427.14466797 401.12702148 426.24121094 401.67138672 C424.56340824 402.68376748 422.88685967 403.69823131 421.21191406 404.71533203 C416.14142742 407.77713396 410.99617294 410.65563141 405.78613281 413.47265625 C401.15562711 416.01107578 396.61342034 418.69732575 392.0625 421.375 C383.11444556 426.61757177 374.13464364 431.80166592 365.125 436.9375 C355.92312739 442.18369731 346.73396203 447.45070609 337.5625 452.75 C329.04240208 457.67259583 320.51055056 462.5734947 311.9621582 467.44677734 C306.1456281 470.76561774 300.34495512 474.1110659 294.54907227 477.46582031 C283.72799358 483.72800009 272.87202583 489.91863044 261.93847656 495.98266602 C257.08851944 498.67893567 252.2744226 501.41099222 247.52734375 504.28515625 C246.24815063 505.05327637 246.24815063 505.05327637 244.94311523 505.83691406 C243.3782088 506.78208189 241.82087688 507.73997743 240.27368164 508.71386719 C235.32727608 511.69094975 230.83139375 513.16405272 225 513 C219.67607663 511.15710345 215.44465442 507.86830422 212.87720013 502.77072525 C211.81440068 499.41376579 211.73435908 496.56623382 211.71479797 493.043396 C211.70830001 492.35535362 211.70180204 491.66731123 211.69510716 490.95841908 C211.67580496 488.65941536 211.67055354 486.36059893 211.6652832 484.06152344 C211.65434428 482.41037942 211.64255318 480.75924086 211.62997437 479.10810852 C211.59839159 474.62655611 211.57913143 470.14502699 211.56235147 465.66339779 C211.54297842 460.96837135 211.51325536 456.27340943 211.48490906 451.57843018 C211.43884238 443.68984298 211.40045223 435.80124765 211.36694336 427.91259766 C211.32819629 418.80526735 211.27892569 409.69804288 211.22361308 400.59079909 C211.17045983 391.81987736 211.12333154 383.04893438 211.07942772 374.27796173 C211.0607549 370.55091473 211.04026052 366.8238844 211.01833534 363.09685516 C210.99285318 358.70069822 210.97275006 354.30454738 210.956707 349.90834618 C210.95003263 348.29955647 210.94160773 346.69077287 210.93125343 345.08200264 C210.88242565 337.32319942 210.89891875 329.69623621 212 322 C211.34 322 210.68 322 210 322 C210 321.34 210 320.68 210 320 C210.66 320 211.32 320 212 320 C211.96519531 319.06800781 211.93039062 318.13601563 211.89453125 317.17578125 C211.52598718 299.81911069 215.48963429 285.39893791 227.4609375 272.3515625 C233.72403777 266.55096809 240.40026554 262.51713133 248.0625 258.8125 C248.88298828 258.40708984 249.70347656 258.00167969 250.54882812 257.58398438 C255.36970879 255.21404085 260.2145745 252.89610807 265.06591797 250.58935547 C278.79552647 244.0566909 292.4203064 237.33827981 306 230.5 C319.5768064 223.66317409 333.19655515 216.94258687 346.92895508 210.4230957 C351.54131506 208.22934917 356.12126351 205.97548145 360.6875 203.6875 C361.32228775 203.37074814 361.9570755 203.05399628 362.61109924 202.72764587 C365.53920193 201.26055354 368.44330517 199.76169746 371.328125 198.2109375 C378.06404339 194.63988529 384.0737085 191.76842712 391.75 193.6875 C396.97039966 196.73273313 400.98099278 200.1481181 403 206 C403.84296349 211.70490443 403.86474654 217.94867667 400.76728821 222.99058533 C398.47265365 225.59959518 396.04717322 226.9394919 393.01245117 228.63500977 C392.40061824 228.97686845 391.78878531 229.31872713 391.15841198 229.67094517 C382.87668395 234.24593911 374.39401305 238.43691649 365.92578125 242.65234375 C364.10786008 243.56070598 362.2900887 244.46936806 360.47245789 245.37831116 C356.6824985 247.27251424 352.89122598 249.16405266 349.09887695 251.0534668 C344.2944793 253.44719878 339.49270901 255.84614331 334.69184589 258.24695492 C330.94231305 260.12158376 327.19173146 261.99410631 323.44081688 263.8659687 C321.67278326 264.74842013 319.90497344 265.63132013 318.13741493 266.51472282 C307.49177367 271.8327929 296.79897956 277.03156909 286.02880859 282.0929718 C281.1917364 284.37103823 276.41858278 286.75951059 271.6875 289.25 C270.91728516 289.64445312 270.14707031 290.03890625 269.35351562 290.4453125 C263.50440799 293.51271085 257.55183453 296.74136596 254.6875 303 C254.38199219 303.639375 254.07648438 304.27875 253.76171875 304.9375 C252.16239988 309.26796341 251.8756876 313.40267371 251.87974548 317.99214172 C251.87837082 319.19382492 251.87699615 320.39550812 251.87557983 321.63360596 C251.87917511 322.94343445 251.88277039 324.25326294 251.88647461 325.6027832 C251.88675682 327.00251768 251.88659808 328.4022523 251.8860321 329.80198669 C251.88574547 333.59497108 251.89162059 337.38792378 251.89860606 341.18090081 C251.90486186 345.14738825 251.90544516 349.11387643 251.90663147 353.08036804 C251.90973822 360.58839359 251.91794277 368.09640457 251.92798096 375.6044237 C251.93916247 384.15334718 251.94465769 392.70227135 251.94967639 401.25120032 C251.96012592 418.83414198 251.97771266 436.41706945 252 454 C254.19767189 452.9122481 256.39407321 451.82204712 258.58984375 450.73046875 C259.20259155 450.42749878 259.81533936 450.12452881 260.44665527 449.81237793 C265.77214268 447.16105477 270.93989159 444.27569669 276.078125 441.27734375 C280.64433852 438.62237627 285.22740314 435.99719312 289.8125 433.375 C290.69711914 432.86864014 291.58173828 432.36228027 292.49316406 431.84057617 C299.40800316 427.89020183 306.35661924 424.00252663 313.3125 420.125 C322.68451496 414.89625774 331.98042366 409.54979211 341.23901367 404.12304688 C350.37418995 398.76973852 359.56170478 393.51137257 368.76367188 388.27392578 C370.7137386 387.16306899 372.66220009 386.04950884 374.609375 384.93359375 C381.7451208 380.8450504 388.90105137 376.79331439 396.0625 372.75 C407.06308705 366.5371776 418.04271266 360.28887222 429 354 C430.05719238 353.39333496 431.11438477 352.78666992 432.20361328 352.16162109 C443.85281663 345.47182884 455.48403885 338.76459491 466.9765625 331.80859375 C470.9329389 329.44192415 474.9486784 327.19878378 479 325 C476.78383302 317.8205424 473.90450945 311.06746103 470.84432983 304.21011353 C465.73100008 292.71801256 461.00858986 281.1254694 456.6875 269.3125 C456.44717041 268.6601236 456.20684082 268.00774719 455.95922852 267.33560181 C452 256.55312743 452 256.55312743 452 253 C451.34 252.67 450.68 252.34 450 252 C449.48974436 249.92496038 448.99393624 247.84522969 448.57421875 245.75 C447.72743887 241.69467325 446.64340582 237.70398739 445.5859375 233.69921875 C445 231 445 231 445 227 C444.01 227 443.02 227 442 227 C442.19335938 226.34773437 442.38671875 225.69546875 442.5859375 225.0234375 C443.12966748 221.05318273 442.38752486 217.51120126 441.625 213.625 C439.10600642 200.77346794 438.84821329 187.78011441 438.88647461 174.72094727 C438.88675774 173.36899823 438.8865963 172.01704904 438.8860321 170.6651001 C438.88574904 167.04832114 438.89156524 163.43157638 438.89860606 159.81480527 C438.90492243 156.01520547 438.90544987 152.21560461 438.90663147 148.41600037 C438.90972064 141.2447591 438.91790097 134.07353335 438.92798096 126.90229887 C438.93921772 118.72798536 438.94467147 110.55367106 438.94967639 102.37935174 C438.96008602 85.58622545 438.97763796 68.79311472 439 52 C438.0242527 52.48953911 438.0242527 52.48953911 437.02879333 52.9889679 C430.78266205 56.12221204 424.53547399 59.25333774 418.28719997 62.3823061 C415.07787906 63.98953416 411.86891927 65.59747319 408.66088867 67.20727539 C393.32019608 74.90455294 377.93981888 82.49885145 362.42774296 89.84696865 C359.2268853 91.36718281 356.0332036 92.90210553 352.84045124 94.43925476 C294.59129324 122.4683504 240.07750684 142.11973929 176.32739258 120.50610352 C172.19720174 119.05907325 168.09499062 117.54350276 164 116 C163.17741699 115.69239746 162.35483398 115.38479492 161.50732422 115.06787109 C159.0847326 114.15826641 156.66628395 113.23872119 154.25 112.3125 C153.17842651 111.90281982 153.17842651 111.90281982 152.08520508 111.48486328 C148.00568799 109.89001609 144.10509367 108.09323691 140.20605469 106.1003418 C135.69970302 103.85265178 131.08640607 101.82787966 126.5 99.75 C118.77897854 96.23399448 111.11595412 92.64640261 103.55834961 88.79150391 C98.31170448 86.12207299 92.98630759 83.64365533 87.60522461 81.25683594 C83.10839102 79.21678205 83.10839102 79.21678205 82 77 C80.00078373 76.33098673 78.00053338 75.66506438 76 75 C72.59704329 73.43442592 69.26758961 71.72643751 65.9296875 70.02734375 C64.9710379 69.54423233 64.01238831 69.06112091 63.02468872 68.56336975 C59.9728316 67.02526073 56.92361693 65.48202029 53.875 63.9375 C49.8538577 61.90036161 45.83011873 59.86849143 41.8046875 57.83984375 C40.88170868 57.370056 39.95872986 56.90026825 39.00778198 56.41624451 C38.14653717 55.98231888 37.28529236 55.54839325 36.39794922 55.10131836 C35.64327362 54.71874374 34.88859802 54.33616913 34.11105347 53.94200134 C32.08186835 53.03653157 30.16854457 52.46342767 28 52 C28.02931107 53.0707225 28.05862213 54.14144501 28.08882141 55.24461365 C28.84680711 83.40424043 29.18828573 111.54892236 29.18530273 139.71850586 C29.18519937 145.07157348 29.19909952 150.42451364 29.21607494 155.7775507 C29.2272682 160.00136388 29.22922007 164.22514622 29.22869301 168.4489727 C29.2298525 170.42331844 29.23415579 172.39766553 29.24202538 174.37199593 C29.30496633 191.71111987 28.14247831 208.59677643 24.375 225.5625 C23.98477661 227.33657227 23.98477661 227.33657227 23.58666992 229.14648438 C17.87751046 254.30628649 8.84861949 278.2089641 -1.37109375 301.8515625 C-1.64915863 302.49551971 -1.92722351 303.13947693 -2.2137146 303.802948 C-3.55961573 306.91383944 -4.91742985 310.01828678 -6.29199219 313.11669922 C-6.77700195 314.22287598 -7.26201172 315.32905273 -7.76171875 316.46875 C-8.19444092 317.44263672 -8.62716309 318.41652344 -9.07299805 319.41992188 C-10.22541981 322.17047348 -10.22541981 322.17047348 -10 326 C-9.33806641 326.3810791 -8.67613281 326.7621582 -7.99414062 327.15478516 C-4.82902986 328.97750121 -1.66441147 330.80107029 1.5 332.625 C2.0852243 332.96224091 2.67044861 333.29948181 3.27340698 333.64694214 C10.57950704 337.85811515 17.87291161 342.08955011 25.14794922 346.35424805 C45.81842786 358.64263196 45.81842786 358.64263196 67 370 C67.09847114 359.33936253 67.14105622 348.70778477 66.5 338.0625 C65.81214881 326.48067053 65.72639845 315.07948226 66.87890625 303.51171875 C66.97273556 300.79066888 66.85618175 298.63231179 66.50439453 295.97680664 C65.63724444 287.6318996 65.95049715 279.23626606 66.05078125 270.859375 C66.07004609 269.00474253 66.08910076 267.15010787 66.10795593 265.29547119 C66.14874471 261.42576733 66.19394253 257.55614425 66.24194336 253.68652344 C66.30274228 248.7348794 66.34957066 243.78321131 66.39277363 238.83138657 C66.42815886 235.00855891 66.47238686 231.18587099 66.51912498 227.36316681 C66.54011535 225.53720601 66.55803383 223.71120715 66.5727787 221.88518524 C66.59440944 219.33438201 66.6283237 216.78401946 66.6652832 214.23339844 C66.66901443 213.48521851 66.67274567 212.73703857 66.67658997 211.96618652 C66.79922825 205.15192546 68.10461587 199.89538413 73 195 C78.03019925 192.42640969 82.62749896 192.81025674 88 194 C91.29692024 195.36110392 94.30579069 197.12805839 97.375 198.9375 C99.30731238 200.03451103 101.24241541 201.12661528 103.1796875 202.21484375 C104.25057617 202.8166748 105.32146484 203.41850586 106.42480469 204.03857422 C112.60196217 207.46001984 118.91624619 210.62566974 125.20703125 213.8314209 C136.51771441 219.59575064 147.77586775 225.42165529 158.88061523 231.57617188 C164.08025079 234.44507391 169.32136771 237.21666807 174.60546875 239.92578125 C175.26399841 240.26377243 175.92252808 240.60176361 176.60101318 240.94999695 C179.85329203 242.61736013 183.10924771 244.2769824 186.37060547 245.92651367 C187.5609491 246.53419221 188.7512195 247.14201424 189.94140625 247.75 C190.99013916 248.28109375 192.03887207 248.8121875 193.11938477 249.359375 C198.4494796 252.3950761 201.86161077 255.14756633 204 261 C204.67580087 268.09590916 203.35096388 273.04450256 198.8125 278.75 C194.07767163 282.5378627 190.27517116 284.13465299 184.171875 283.7734375 C180.03762736 283.15900985 176.77438608 281.70232903 173.0625 279.75 C172.06210693 279.23034668 172.06210693 279.23034668 171.04150391 278.70019531 C169.53458965 277.91594018 168.03051288 277.12621694 166.52880859 276.33203125 C163.75345765 274.87013564 160.96575646 273.43378138 158.17578125 272 C145.25320419 265.34451281 132.44347021 258.49936748 119.71026611 251.4889679 C116.87215947 249.92976688 114.03013708 248.37791009 111.18701172 246.82788086 C110.2112619 246.29585556 109.23551208 245.76383026 108.23019409 245.21568298 C107.49423004 244.8145076 106.75826599 244.41333221 106 244 C105.99668985 244.92398464 105.99337971 245.84796928 105.98996925 246.79995346 C105.90903007 269.26669325 105.81673146 291.73336438 105.71247292 314.20000839 C105.66231848 325.06463966 105.61587589 335.92926328 105.578125 346.79394531 C105.54521784 356.26190953 105.5053937 365.72981484 105.45720994 375.19771409 C105.43193227 380.21241143 105.41015472 385.22706963 105.39665604 390.24181366 C105.38384721 394.95971489 105.36180553 399.67748199 105.33261681 404.39530945 C105.3235318 406.12872622 105.31784865 407.86216459 105.31578636 409.59560394 C105.31247033 411.95905104 105.29701099 414.32211631 105.2784729 416.68548584 C105.28040763 417.37420517 105.28234237 418.06292449 105.28433573 418.7725141 C105.24248001 422.33254072 105.06026779 425.03444693 103 428 C99.26413879 430.51953431 96.58537794 431.38715294 92.12133789 430.63110352 C87.41835585 429.23195418 83.26987592 426.53154891 79.0625 424.0625 C78.03398926 423.46985352 77.00547852 422.87720703 75.94580078 422.26660156 C69.72720022 418.66170031 63.59494659 414.94015298 57.53442383 411.07666016 C50.87539537 406.85693025 44.06061022 402.90545937 37.25 398.9375 C25.99329355 392.37808229 14.82106601 385.69411866 3.71386719 378.88452148 C-1.78481266 375.52177806 -7.31082257 372.22553681 -12.91796875 369.046875 C-20.1573223 364.9428755 -27.27165941 360.64656163 -34.375 356.3125 C-35.59235032 355.57210513 -36.80979808 354.83187046 -38.02734375 354.09179688 C-40.33684909 352.68727178 -42.64335638 351.27818608 -44.94848633 349.86645508 C-46.81342118 348.72576967 -48.68215427 347.59122842 -50.55737305 346.4675293 C-54.98703597 343.7849586 -57.49694241 342.11039581 -59 337 C-58.61845218 331.38750783 -57.53389839 327.30756724 -55.04296875 322.203125 C-54.74393646 321.58023087 -54.44490417 320.95733673 -54.1368103 320.31556702 C-53.49574 318.98184023 -52.84983886 317.65042626 -52.19949341 316.32119751 C-50.46303551 312.7672739 -48.76822002 309.19355425 -47.0703125 305.62109375 C-46.72523148 304.89685715 -46.38015045 304.17262054 -46.02461243 303.42643738 C-23.18266765 258.05443478 -23.18266765 258.05443478 -14 209 C-13.34 209 -12.68 209 -12 209 C-10.89645906 188.60739413 -10.88051116 168.25186692 -10.93153763 147.83744812 C-10.9416787 143.22399335 -10.945059 138.61053385 -10.94897461 133.99707031 C-10.95995914 122.33136901 -10.97955208 110.66568796 -11 99 C-11.02210997 86.34252743 -11.04261688 73.68506257 -11.05341816 61.02757454 C-11.05837458 55.55987888 -11.06819158 50.09222087 -11.08184814 44.62454033 C-11.08933031 41.22838662 -11.09262745 37.83223797 -11.0948143 34.43607712 C-11.09667809 32.86920235 -11.10026249 31.30232847 -11.10574722 29.73546219 C-11.177373 8.60253547 -11.177373 8.60253547 -7.75 3.9375 C-4.78523986 1.84869172 -3.53307049 1.49527564 0 2 C0 1.34 0 0.68 0 0 Z " fill="#7484FE" transform="translate(66,9)"/>
<path d="M0 0 C3.92429236 1.49902952 7.63725696 3.26741553 11.38671875 5.16015625 C12.82075382 5.88176651 14.2548406 6.60327402 15.68896484 7.32470703 C16.92595123 7.94820038 16.92595123 7.94820038 18.18792725 8.58428955 C27.31059362 13.17700647 36.44690623 17.74272298 45.5795002 22.31566429 C49.03897352 24.04799024 52.49805669 25.78108652 55.95629883 27.51586914 C76.97828354 38.06098992 76.97828354 38.06098992 98.19555664 48.20605469 C102.04192971 50.00474331 105.8339268 51.90004594 109.625 53.8125 C142.80552359 70.453359 176.09311082 86.07349999 213 92 C214.07378906 92.19207031 215.14757812 92.38414063 216.25390625 92.58203125 C234.91705994 94.66436435 253.77426082 93.31189448 272 89 C273.29695801 88.69449219 273.29695801 88.69449219 274.62011719 88.3828125 C310.56220411 79.60389342 343.94872196 60.95997599 377.00878906 44.83178711 C384.52286969 41.16659818 392.05098209 37.54024747 399.625 34 C405.96425924 31.03185504 412.14656491 27.83768909 418.30688477 24.51586914 C425.27001811 20.79151483 432.38599711 17.4049151 439.52856445 14.0402832 C443.97576206 11.94194447 448.39551484 9.82396182 452.7421875 7.5234375 C453.45818115 7.14775635 454.1741748 6.7720752 454.91186523 6.38500977 C456.20786367 5.69881944 457.49725553 4.99990732 458.77758789 4.28491211 C463.46546312 1.81571593 466.82866008 1.51417475 472 2 C475.21954645 4.53453657 476.70432435 6.11297305 478 10 C478.09339816 12.50878434 478.13036484 14.9893081 478.12025452 17.49797058 C478.12153615 18.65337726 478.12153615 18.65337726 478.12284368 19.83212548 C478.12449473 22.42090332 478.11898322 25.00961678 478.11352539 27.59838867 C478.11324341 29.45102436 478.11340146 31.30366016 478.1139679 33.15629578 C478.11425545 38.19315732 478.10836541 43.22999517 478.10139394 48.26685119 C478.09515351 53.52794129 478.09455605 58.78903189 478.09336853 64.05012512 C478.09025725 74.01608367 478.08204659 83.98203127 478.07201904 93.94798499 C478.0608516 105.29245635 478.05534586 116.63692822 478.05032361 127.98140371 C478.03986382 151.32094187 478.0222683 174.66047033 478 198 C477.67 198 477.34 198 477 198 C475.82768903 191.47218828 475.8269927 185.02288324 475.79467773 178.40332031 C475.78477814 177.14488312 475.77487854 175.88644592 475.76467896 174.58987427 C475.73770137 171.14125068 475.71662155 167.69261371 475.69667697 164.24394321 C475.67457922 160.58584382 475.64726589 156.92778294 475.62062073 153.26971436 C475.57634504 147.08933304 475.53562416 140.90893667 475.49731445 134.72851562 C475.44901827 126.93940165 475.39516268 119.15033768 475.33930016 111.36127472 C475.29588397 105.3011992 475.2547625 99.24110853 475.2139473 93.18101501 C475.19385692 90.19945377 475.17317882 87.21789745 475.15205002 84.23634338 C475.05129832 69.91147881 474.96871466 55.58884125 475.07861328 41.26367188 C475.0882685 39.72477106 475.0882685 39.72477106 475.09811878 38.15478134 C475.12718716 33.54514136 475.16882536 28.93661801 475.24131775 24.32745361 C475.25403993 22.75834647 475.26617254 21.18923438 475.27758789 19.62011719 C475.29608292 18.30243347 475.31457794 16.98474976 475.33363342 15.62713623 C474.94751879 11.42944411 473.843058 8.75876321 472 5 C465.61904101 4.57648502 461.95332961 5.51644607 456.5 8.75 C455.18265287 9.49282842 453.86494836 10.23502346 452.546875 10.9765625 C451.6197168 11.50878418 451.6197168 11.50878418 450.67382812 12.05175781 C448.73313191 13.15118373 446.75788317 14.15424657 444.75 15.125 C441.63112207 16.65399439 438.60025429 18.31561762 435.5625 20 C431.44554178 22.26375681 427.30027547 24.2809545 422.984375 26.1328125 C421.27351496 26.88047181 419.60063531 27.71396158 417.9375 28.5625 C414.94485403 30.02698632 411.93229757 31.1747576 408.80859375 32.3203125 C405.62404172 33.51709879 402.81750134 35.10584922 399.875 36.8125 C392.89869185 40.81383666 385.77556863 44.2291881 378.2265625 47.0078125 C375.85263796 48.06566659 374.05559471 49.42404406 372 51 C370 51.66666667 368 52.33333333 366 53 C363.44180782 54.20410023 360.92596418 55.47546709 358.41015625 56.765625 C356.43747454 57.77594497 354.44050186 58.73870965 352.4375 59.6875 C349.87821247 60.76399722 349.87821247 60.76399722 349 63 C347.67623082 63.36949162 346.34035371 63.69612368 345 64 C343.46535689 64.65609513 341.94594497 65.34822831 340.4375 66.0625 C334.20859503 68.94906572 327.88798592 71.59580934 321.55053711 74.23266602 C320.76171143 74.56194092 319.97288574 74.89121582 319.16015625 75.23046875 C318.45511963 75.52332764 317.75008301 75.81618652 317.02368164 76.11791992 C314.35355843 77.28177022 311.77392736 78.58261996 309.2109375 79.96484375 C304.7532071 82.32649241 300.3472772 83.91914569 295.49609375 85.28515625 C293.17267686 85.95054794 290.90626659 86.70382558 288.625 87.5 C281.57299222 89.88413074 274.30428529 91.58776101 267 93 C266.16082031 93.165 265.32164062 93.33 264.45703125 93.5 C263.58433594 93.665 262.71164062 93.83 261.8125 94 C260.95269531 94.165 260.09289062 94.33 259.20703125 94.5 C251.06948934 95.76870325 243.04156935 96.1639443 234.8125 96.125 C233.31771118 96.12209961 233.31771118 96.12209961 231.79272461 96.11914062 C223.82817266 96.07289111 215.93348811 95.70185677 208 95 C208 94.34 208 93.68 208 93 C207.319375 93.20625 206.63875 93.4125 205.9375 93.625 C202.1460999 94.10900852 199.64944674 93.13671292 196 92 C192.67743037 91.27622387 189.34114921 90.63192762 186 90 C186 89.34 186 88.68 186 88 C185.21625 88.0825 184.4325 88.165 183.625 88.25 C178.60498124 87.90379181 174.590661 85.9525214 170 84 C166.08096014 82.50383667 166.08096014 82.50383667 162 82 C162 81.34 162 80.68 162 80 C161.21625 80.04125 160.4325 80.0825 159.625 80.125 C157 80 157 80 155 78 C153.906875 77.690625 152.81375 77.38125 151.6875 77.0625 C148.26222516 76.0755564 145.97970196 74.88191702 143 73 C141.33724887 72.32362666 139.66998407 71.65831256 138 71 C135.23058304 69.75853722 132.47524728 68.48859706 129.71875 67.21875 C127.16923617 66.07586449 124.60153107 65.01799042 122 64 C122 63.34 122 62.68 122 62 C121.154375 61.731875 120.30875 61.46375 119.4375 61.1875 C116.99281959 60.34297404 114.67655375 59.46359993 112.3125 58.4375 C109.0874603 56.98050103 109.0874603 56.98050103 106 56 C106 55.34 106 54.68 106 54 C104.02 53.67 102.04 53.34 100 53 C100 52.34 100 51.68 100 51 C99.484375 50.896875 98.96875 50.79375 98.4375 50.6875 C95.13210828 49.75521003 92.10371171 48.46401496 89 47 C88.67 46.34 88.34 45.68 88 45 C86.00812306 44.30944174 84.00580168 43.64900235 82 43 C79.15281072 41.76003814 76.35989037 40.41049094 73.5625 39.0625 C68.41611471 36.59680962 63.2614005 34.21131326 58 32 C58 31.34 58 30.68 58 30 C54.7 29.01 51.4 28.02 48 27 C48 26.34 48 25.68 48 25 C46.02 24.67 44.04 24.34 42 24 C42 23.34 42 22.68 42 22 C41.40832031 21.80664062 40.81664062 21.61328125 40.20703125 21.4140625 C36.0853355 20.05585281 32.0049476 18.67949415 28 17 C28 16.34 28 15.68 28 15 C26.96875 14.731875 25.9375 14.46375 24.875 14.1875 C21.34742768 13.18778315 18.25219585 11.70001147 15 10 C14.01 9.67 13.02 9.34 12 9 C12 8.34 12 7.68 12 7 C11.14535156 6.79310547 11.14535156 6.79310547 10.2734375 6.58203125 C8.78888657 6.20196581 7.31338229 5.78402752 5.8515625 5.32421875 C1.49074167 4.077177 -0.26853315 3.64732848 -4.5 5.6875 C-7.20741702 7.81942447 -7.20741702 7.81942447 -8 11 C-8.08151788 14.01800162 -8.10503765 17.01202692 -8.08178711 20.02954102 C-8.07872055 20.95335571 -8.07565399 21.87717041 -8.07249451 22.82897949 C-8.06533772 24.83588588 -8.05594682 26.84278525 -8.04459953 28.84967232 C-8.02724513 32.02193286 -8.01692202 35.19414331 -8.00868225 38.36643982 C-7.98419197 47.38618716 -7.94855821 56.40586682 -7.90405273 65.42553711 C-7.87733374 70.94027701 -7.86024989 76.45497798 -7.84918404 81.96977043 C-7.84295853 84.07540262 -7.83293385 86.18102702 -7.81910515 88.286623 C-7.79997942 91.22441737 -7.79300575 94.16200548 -7.78881836 97.09985352 C-7.78005676 97.97626999 -7.77129517 98.85268646 -7.76226807 99.75566101 C-7.7721037 105.7721037 -7.7721037 105.7721037 -10 108 C-11.11284192 103.5335818 -11.14123971 99.16137221 -11.12939453 94.58886719 C-11.13114685 93.75403305 -11.13289917 92.91919891 -11.13470459 92.05906677 C-11.13909785 89.30498156 -11.13619291 86.55096085 -11.1328125 83.796875 C-11.13348652 81.87502022 -11.13445736 79.95316552 -11.13571167 78.03131104 C-11.13718544 74.00312488 -11.13504532 69.97496092 -11.13037109 65.94677734 C-11.12468937 60.80126542 -11.12794497 55.65580585 -11.13394356 50.51029587 C-11.13757094 46.53987235 -11.13640033 42.56946107 -11.13381577 38.59903717 C-11.13315172 36.70295455 -11.13395655 34.80687079 -11.13629532 32.91078949 C-11.13885595 30.25006709 -11.13493288 27.58942725 -11.12939453 24.92871094 C-11.13141876 24.15540939 -11.13344299 23.38210785 -11.13552856 22.58537292 C-11.081543 8.47210019 -11.081543 8.47210019 -7.75 3.9375 C-4.78523986 1.84869172 -3.53307049 1.49527564 0 2 C0 1.34 0 0.68 0 0 Z " fill="#549CFA" transform="translate(66,9)"/>
<path d="M0 0 C2.00720923 0.28674418 4.0085944 0.61866701 6 1 C6 1.66 6 2.32 6 3 C7.5778125 3.4021875 7.5778125 3.4021875 9.1875 3.8125 C12.59695742 4.87446215 15.10163909 5.95409818 18 8 C18.33 8.66 18.66 9.32 19 10 C21.36195411 10.60602665 21.36195411 10.60602665 24 11 C25.33542939 11.32483418 26.66961551 11.6550855 28 12 C28 12.66 28 13.32 28 14 C30.475 14.495 30.475 14.495 33 15 C33 15.66 33 16.32 33 17 C34.670625 17.185625 34.670625 17.185625 36.375 17.375 C40 18 40 18 42 20 C44.31648799 21.03842565 46.64903024 22.0421975 49 23 C49 23.66 49 24.32 49 25 C50.60875 25.185625 50.60875 25.185625 52.25 25.375 C55.37863615 25.89643936 57.33480424 26.40088254 60 28 C60 28.66 60 29.32 60 30 C66.3079086 32.84371005 66.3079086 32.84371005 73 34 C73 34.66 73 35.32 73 36 C75.53894043 37.02288247 78.08072258 38.0305695 80.640625 39 C81.50171875 39.33 82.3628125 39.66 83.25 40 C84.12140625 40.33 84.9928125 40.66 85.890625 41 C88 42 88 42 89 44 C90.66666667 44.33333333 92.33333333 44.66666667 94 45 C96.02237052 45.95394836 98.0282696 46.94535351 100 48 C100 48.66 100 49.32 100 50 C101.11375 50.144375 102.2275 50.28875 103.375 50.4375 C107 51 107 51 109 52 C109 52.66 109 53.32 109 54 C110.3303125 54.185625 110.3303125 54.185625 111.6875 54.375 C114.73786997 54.9505415 117.16877629 55.76587684 120 57 C120.763125 57.28875 121.52625 57.5775 122.3125 57.875 C124.62117523 58.84142219 126.7821061 59.90986096 129 61.0625 C131.98662055 62.58409267 134.64024934 63.58003117 138 64 C138 64.66 138 65.32 138 66 C139.60875 65.9071875 139.60875 65.9071875 141.25 65.8125 C145 66 145 66 146.87109375 67.4140625 C149.46967692 69.34988776 151.66102584 69.85453084 154.8125 70.5625 C158.20752479 71.34628458 161.55422228 72.13257732 164.875 73.1875 C168.05019285 74.01305014 170.73473169 74.15928138 174 74 C174.33 74.99 174.66 75.98 175 77 C175.62648438 76.98839844 176.25296875 76.97679687 176.8984375 76.96484375 C177.71570313 76.95582031 178.53296875 76.94679688 179.375 76.9375 C180.18710937 76.92589844 180.99921875 76.91429687 181.8359375 76.90234375 C184 77 184 77 186 78 C203.90657703 80.32069238 222.25753546 79.61537403 239.77124023 75.37207031 C243.59800545 74.45663652 247.03053004 73.7553607 251 74 C251.33 73.34 251.66 72.68 252 72 C254.046875 71.32421875 254.046875 71.32421875 256.75 70.6875 C262.3538082 69.25922119 267.59771858 67.26942729 272.96484375 65.1328125 C275.5620667 64.16345001 278.05129459 63.42079496 280.75 62.8125 C281.8225 62.544375 282.895 62.27625 284 62 C284.33 61.34 284.66 60.68 285 60 C286.85546875 59.21875 286.85546875 59.21875 289.1875 58.5 C290.39986328 58.11521484 290.39986328 58.11521484 291.63671875 57.72265625 C293.59042506 57.12524193 295.54508755 56.53095557 297.5 55.9375 C300.14993914 55.26716429 300.14993914 55.26716429 301 53 C302.8601111 52.28977576 304.72342308 51.58685921 306.6015625 50.92578125 C310.13104266 49.5634249 313.44442721 47.82470804 316.80078125 46.0859375 C319 45 319 45 322 44 C322.33 43.34 322.66 42.68 323 42 C324.64621797 41.52965201 326.2945983 41.0655368 327.953125 40.640625 C330.92355546 39.71094829 333.56692072 38.27635309 336.30078125 36.8046875 C338 36 338 36 340 36 C340.33 35.34 340.66 34.68 341 34 C343.5898477 32.73287678 346.16189561 31.56220965 348.8125 30.4375 C349.53759766 30.12103516 350.26269531 29.80457031 351.00976562 29.47851562 C356.51968464 27.10415894 356.51968464 27.10415894 359.1784668 26.52758789 C359.77957275 26.35348389 360.38067871 26.17937988 361 26 C361.33 25.34 361.66 24.68 362 24 C364.21484375 22.9296875 364.21484375 22.9296875 366.9375 21.875 C367.83339844 21.52179688 368.72929687 21.16859375 369.65234375 20.8046875 C372 20 372 20 374 20 C374 19.34 374 18.68 374 18 C375.32 18 376.64 18 378 18 C378 17.34 378 16.68 378 16 C378.59683594 15.74347656 379.19367188 15.48695312 379.80859375 15.22265625 C386.71721695 12.17382848 393.36462345 8.7482062 399.98413086 5.12329102 C403.91553738 2.99631454 407.68674974 1.26621318 412 0 C414.41365433 8.92167785 414.25771887 17.79085941 414.1953125 26.9453125 C414.19157517 28.56769637 414.18873161 30.19008253 414.18673706 31.81246948 C414.17915724 36.05060223 414.15955836 40.28859452 414.1373291 44.52667236 C414.11674787 48.86411642 414.10770927 53.20158352 414.09765625 57.5390625 C414.07630625 66.02610561 414.04223991 74.51303525 414 83 C412.515 83.495 412.515 83.495 411 84 C411 57.27 411 30.54 411 3 C393.60516027 11.71704102 393.60516027 11.71704102 376.21264648 20.4387207 C362.3907433 27.36312958 348.5203062 34.16741641 334.54995728 40.78860474 C331.35282794 42.30744875 328.16298245 43.84116764 324.97348022 45.37594604 C265.56395961 73.94452576 210.5859077 93.31864415 145.8125 70.625 C142.53071146 69.44505652 139.26331208 68.23002265 136 67 C135.17741699 66.69239746 134.35483398 66.38479492 133.50732422 66.06787109 C131.0847326 65.15826641 128.66628395 64.23872119 126.25 63.3125 C125.53561768 63.03937988 124.82123535 62.76625977 124.08520508 62.48486328 C120.00568799 60.89001609 116.10509367 59.09323691 112.20605469 57.1003418 C107.69970302 54.85265178 103.08640607 52.82787966 98.5 50.75 C90.77897854 47.23399448 83.11595412 43.64640261 75.55834961 39.79150391 C70.31170448 37.12207299 64.98630759 34.64365533 59.60522461 32.25683594 C55.10839102 30.21678205 55.10839102 30.21678205 54 28 C52.00078373 27.33098673 50.00053338 26.66506438 48 26 C44.59704329 24.43442592 41.26758961 22.72643751 37.9296875 21.02734375 C36.9710379 20.54423233 36.01238831 20.06112091 35.02468872 19.56336975 C31.9728316 18.02526073 28.92361693 16.48202029 25.875 14.9375 C21.8538577 12.90036161 17.83011873 10.86849143 13.8046875 8.83984375 C12.42021927 8.13516212 12.42021927 8.13516212 11.00778198 7.41624451 C10.14653717 6.98231888 9.28529236 6.54839325 8.39794922 6.10131836 C7.64327362 5.71874374 6.88859802 5.33616913 6.11105347 4.94200134 C4.08186835 4.03653157 2.16854457 3.46342767 0 3 C0.02963837 4.06614029 0.05927673 5.13228058 0.08981323 6.23072815 C0.86571858 34.65240039 1.16108547 63.05579119 1.13037109 91.48754883 C1.12453203 96.96751225 1.12806541 102.4474282 1.13394356 107.9273901 C1.13754444 112.21068182 1.13641519 116.49396206 1.13381577 120.7772541 C1.13315241 122.8022417 1.13395409 124.82723037 1.13629532 126.85221672 C1.13882914 129.64361279 1.13497738 132.43492832 1.12939453 135.22631836 C1.13141876 136.04623764 1.13344299 136.86615692 1.13552856 137.71092224 C1.12109876 141.59728207 0.95205222 145.22277019 0 149 C-0.33 149 -0.66 149 -1 149 C-1.87231588 117.63142809 -2.11206098 86.27339081 -2.12338257 54.89436722 C-2.12499793 51.94128335 -2.12855795 48.98820724 -2.13256836 46.03512573 C-2.13845704 41.31758613 -2.13862305 36.60007888 -2.13431931 31.88253784 C-2.13332774 30.12703468 -2.13389811 28.37152982 -2.13615799 26.61602783 C-2.15459938 9.17527569 -2.15459938 9.17527569 -1 1 C-0.67 0.67 -0.34 0.34 0 0 Z " fill="#5697FB" transform="translate(94,58)"/>
<path d="M0 0 C0.66 0 1.32 0 2 0 C2.33 45.87 2.66 91.74 3 139 C11.19024692 134.90487654 19.19515927 130.8773515 27.078125 126.27734375 C31.64433852 123.62237627 36.22740314 120.99719312 40.8125 118.375 C42.13942871 117.61546021 42.13942871 117.61546021 43.49316406 116.84057617 C50.40800316 112.89020183 57.35661924 109.00252663 64.3125 105.125 C73.68451496 99.89625774 82.98042366 94.54979211 92.23901367 89.12304688 C101.37418995 83.76973852 110.56170478 78.51137257 119.76367188 73.27392578 C121.7137386 72.16306899 123.66220009 71.04950884 125.609375 69.93359375 C132.7451208 65.8450504 139.90105137 61.79331439 147.0625 57.75 C158.06308705 51.5371776 169.04271266 45.28887222 180 39 C181.58578857 38.09000244 181.58578857 38.09000244 183.20361328 37.16162109 C194.85281663 30.47182884 206.48403885 23.76459491 217.9765625 16.80859375 C221.9341113 14.44122283 225.94909266 12.20312504 230 10 C229.01 5.05 229.01 5.05 228 0 C231.32604248 1.66302124 231.80042476 4.62976481 233 8 C232.9375 10.25 232.9375 10.25 232 12 C229.89544013 13.94866655 227.8407067 15.07602635 225.25 16.3125 C222.56778607 17.705188 220.68536274 19.00082608 218.375 20.875 C214.1958329 24.12009507 209.75279871 25.94749093 204.83203125 27.82421875 C201.94645708 28.94100159 201.94645708 28.94100159 199.26171875 30.64453125 C197 32 197 32 195 32 C195 32.66 195 33.32 195 34 C194.34 34 193.68 34 193 34 C193 34.66 193 35.32 193 36 C189.90477042 37.03174319 186.82765538 38.04877678 183.6875 38.9375 C182.3571875 39.4634375 182.3571875 39.4634375 181 40 C180.67 40.99 180.34 41.98 180 43 C176.4375 44.1875 176.4375 44.1875 173 45 C173 45.66 173 46.32 173 47 C172.43152344 47.24234375 171.86304688 47.4846875 171.27734375 47.734375 C167.42321804 49.40728432 163.68295531 51.11133441 160.0625 53.25 C157 55 157 55 155 55 C154.67 55.99 154.34 56.98 154 58 C152.68 58 151.36 58 150 58 C150 58.66 150 59.32 150 60 C149.19175781 60.38671875 148.38351562 60.7734375 147.55078125 61.171875 C145.94783203 61.95304687 145.94783203 61.95304687 144.3125 62.75 C143.25675781 63.26046875 142.20101562 63.7709375 141.11328125 64.296875 C138.09517526 65.94793424 135.6717355 67.85109168 133 70 C130.9375 70.94140625 130.9375 70.94140625 129 71.5625 C124.61089027 73.09703837 121.15513616 74.81088925 117.875 78.1875 C116 80 116 80 113 80 C111.88334649 81.18432948 110.7680165 82.36994096 109.66015625 83.5625 C106.88414935 85.96619539 103.61261231 87.34335566 100.3046875 88.88671875 C97.81383489 90.02475514 97.81383489 90.02475514 95 92 C92.94428582 92.59682025 90.92224906 93.01332873 88.8125 93.375 C87.9153125 93.684375 87.9153125 93.684375 87 94 C86.505 95.485 86.505 95.485 86 97 C82.02935452 99.84982871 77.55823753 101.88808603 72.9375 103.4375 C68.97041752 104.81254452 66.0872587 107.05466729 62.81640625 109.640625 C60.00236721 111.7466155 57.25042236 112.78564188 53.8125 113.375 C53.214375 113.58125 52.61625 113.7875 52 114 C51.731875 114.598125 51.46375 115.19625 51.1875 115.8125 C49.38209215 119.13825131 46.35155951 120.510418 43 122 C42.175 122.144375 41.35 122.28875 40.5 122.4375 C37.24261907 123.17041071 35.30609163 124.85438719 32.74609375 126.94140625 C31 128 31 128 27 128 C27 128.66 27 129.32 27 130 C26.34 130 25.68 130 25 130 C25 130.66 25 131.32 25 132 C21 133.33333333 17 134.66666667 13 136 C12.67 136.99 12.34 137.98 12 139 C9.49609375 140.16796875 9.49609375 140.16796875 6.4375 141.1875 C5.42558594 141.53167969 4.41367187 141.87585938 3.37109375 142.23046875 C2.58863281 142.48441406 1.80617188 142.73835937 1 143 C0 142 0 142 -0.12304783 139.65928555 C-0.12212604 138.61305051 -0.12120424 137.56681547 -0.12025452 136.48887634 C-0.12162918 135.2926918 -0.12300385 134.09650726 -0.12442017 132.86407471 C-0.12088057 131.52648901 -0.11724575 130.18890356 -0.11352539 128.85131836 C-0.11324352 127.45217389 -0.11340125 126.05302927 -0.1139679 124.65388489 C-0.11425588 120.84413541 -0.10835898 117.03441714 -0.10139394 113.22467494 C-0.09516059 109.24748691 -0.09455662 105.27029824 -0.09336853 101.29310608 C-0.09025516 93.75661461 -0.08204169 86.22013757 -0.07201904 78.68365246 C-0.06085808 70.10580172 -0.0553475 61.5279503 -0.05032361 52.9500941 C-0.03985908 35.30005454 -0.02225953 17.65002843 0 0 Z " fill="#7E6AFA" transform="translate(315,324)"/>
<path d="M0 0 C0.66 0.33 1.32 0.66 2 1 C2.8923441 3.67703231 3.25160342 5.59383084 3.375 8.375 C3.42398437 9.12523437 3.47296875 9.87546875 3.5234375 10.6484375 C2.52926152 15.11481019 -0.77004019 17.1846137 -4.40039062 19.59130859 C-7.38807515 21.4389556 -10.40534339 23.22629272 -13.4375 25 C-15.10607056 25.98794556 -15.10607056 25.98794556 -16.80834961 26.99584961 C-19.10045618 28.35188365 -21.39449229 29.70466139 -23.69042969 31.05419922 C-26.69658345 32.82161184 -29.69726543 34.59778844 -32.6953125 36.37890625 C-44.22125759 43.22054899 -55.79821355 49.97424933 -67.37890625 56.72265625 C-76.64773902 62.124928 -85.91351316 67.53141751 -95.1015625 73.0703125 C-95.97844727 73.59866699 -96.85533203 74.12702148 -97.75878906 74.67138672 C-99.43659176 75.68376748 -101.11314033 76.69823131 -102.78808594 77.71533203 C-107.85857258 80.77713396 -113.00382706 83.65563141 -118.21386719 86.47265625 C-122.84437289 89.01107578 -127.38657966 91.69732575 -131.9375 94.375 C-140.88555444 99.61757177 -149.86535636 104.80166592 -158.875 109.9375 C-168.07687261 115.18369731 -177.26603797 120.45070609 -186.4375 125.75 C-194.95759792 130.67259583 -203.48944944 135.5734947 -212.0378418 140.44677734 C-217.8543719 143.76561774 -223.65504488 147.1110659 -229.45092773 150.46582031 C-240.27200642 156.72800009 -251.12797417 162.91863044 -262.06152344 168.98266602 C-266.91148056 171.67893567 -271.7255774 174.41099222 -276.47265625 177.28515625 C-277.75184937 178.05327637 -277.75184937 178.05327637 -279.05688477 178.83691406 C-280.6217912 179.78208189 -282.17912312 180.73997743 -283.72631836 181.71386719 C-288.67272392 184.69094975 -293.16860625 186.16405272 -299 186 C-303.75275333 184.35481615 -306.62408923 181.67378525 -310 178 C-309.67 177.01 -309.34 176.02 -309 175 C-308.319375 175.928125 -307.63875 176.85625 -306.9375 177.8125 C-304.05694325 181.31386639 -301.23212101 182.50631023 -297 184 C-296.505 183.01 -296.505 183.01 -296 182 C-294.3373217 181.64731066 -292.66934283 181.31966139 -291 181 C-288.9028768 180.2527492 -286.83675259 179.44719176 -284.76953125 178.62109375 C-283 178 -283 178 -281 178 C-280.67 177.01 -280.34 176.02 -280 175 C-277.20074306 172.94172284 -274.8703596 171.96527489 -271.5 171.0625 C-266.93290987 169.67606192 -264.31991428 167.31991428 -261 164 C-259.0546875 163.3671875 -259.0546875 163.3671875 -256.875 162.875 C-255.59625 162.58625 -254.3175 162.2975 -253 162 C-253 161.34 -253 160.68 -253 160 C-250.953125 158.52734375 -250.953125 158.52734375 -248.25 156.9375 C-247.36828125 156.41027344 -246.4865625 155.88304687 -245.578125 155.33984375 C-242.64559106 153.81581475 -240.29812129 153 -237 153 C-237 152.34 -237 151.68 -237 151 C-234.03 150.01 -231.06 149.02 -228 148 C-228 147.34 -228 146.68 -228 146 C-227.01 146 -226.02 146 -225 146 C-224.67 145.01 -224.34 144.02 -224 143 C-220.70939866 140.62345458 -217.95253676 139.69169393 -214 139 C-212.3207762 138.36562656 -210.64991582 137.70710678 -209 137 C-209 136.34 -209 135.68 -209 135 C-207.71086513 134.32845067 -206.41859796 133.66291141 -205.125 133 C-204.40570313 132.62875 -203.68640625 132.2575 -202.9453125 131.875 C-201 131 -201 131 -199 131 C-198.67 130.34 -198.34 129.68 -198 129 C-193.08656663 125.62803593 -187.93598048 122.86851398 -182.625 120.1875 C-182.0060083 119.87337158 -181.3870166 119.55924316 -180.74926758 119.2355957 C-176.24644916 117 -176.24644916 117 -174 117 C-173.67 116.01 -173.34 115.02 -173 114 C-168.0941154 110.88647249 -162.57066814 108.61256183 -157 107 C-157 106.34 -157 105.68 -157 105 C-156.01 105 -155.02 105 -154 105 C-154 104.34 -154 103.68 -154 103 C-153.195625 102.87625 -152.39125 102.7525 -151.5625 102.625 C-150.716875 102.41875 -149.87125 102.2125 -149 102 C-148.67 101.34 -148.34 100.68 -148 100 C-147.01 100 -146.02 100 -145 100 C-145 99.34 -145 98.68 -145 98 C-142.62109375 96.4140625 -142.62109375 96.4140625 -139.4375 94.625 C-138.344375 94.00625 -137.25125 93.3875 -136.125 92.75 C-135.09375 92.1725 -134.0625 91.595 -133 91 C-131.6450771 90.20962831 -130.29072735 89.41827121 -128.9375 88.625 C-126 87 -126 87 -123 86 C-122.34 85.34 -121.68 84.68 -121 84 C-119.01751285 83.28293018 -117.01584651 82.61709587 -115 82 C-114.01 81.67 -113.02 81.34 -112 81 C-112 80.34 -112 79.68 -112 79 C-110.71086513 78.32845067 -109.41859796 77.66291141 -108.125 77 C-107.40570313 76.62875 -106.68640625 76.2575 -105.9453125 75.875 C-104 75 -104 75 -102 75 C-102 74.34 -102 73.68 -102 73 C-101.38511719 72.74605469 -100.77023437 72.49210937 -100.13671875 72.23046875 C-99.32847656 71.88628906 -98.52023437 71.54210937 -97.6875 71.1875 C-96.88699219 70.85105469 -96.08648437 70.51460938 -95.26171875 70.16796875 C-93.00542926 69.00280371 -91.73071787 67.82206131 -90 66 C-88.33133875 65.01843456 -86.6598658 64.0407769 -84.96484375 63.10546875 C-82.89445177 61.94061601 -80.88532437 60.70297829 -78.875 59.4375 C-78.20726562 59.01984375 -77.53953125 58.6021875 -76.8515625 58.171875 C-75.30676882 57.19415748 -73.77647146 56.19358346 -72.25 55.1875 C-70 54 -70 54 -66 54 C-66 53.34 -66 52.68 -66 52 C-62.32547562 49.1605948 -60.73113419 48 -56 48 C-55.67 47.34 -55.34 46.68 -55 46 C-52.52931011 44.65838883 -49.99424624 43.5016976 -47.4453125 42.31640625 C-45.13147385 41.07077746 -43.80386322 39.85960057 -42 38 C-39.68020619 36.96898053 -37.34570085 35.97063483 -35 35 C-32.2667125 33.48150695 -30.20875717 32.20875717 -28 30 C-25.41325597 27.41325597 -23.28581496 27.31363281 -19.77734375 26.66015625 C-19.19082031 26.44230469 -18.60429688 26.22445313 -18 26 C-17.67 25.01 -17.34 24.02 -17 23 C-16.34 23.33 -15.68 23.66 -15 24 C-15 23.34 -15 22.68 -15 22 C-12.69 21.34 -10.38 20.68 -8 20 C-8 19.34 -8 18.68 -8 18 C-6.67798507 17.37145273 -5.34195171 16.7722741 -4 16.1875 C-1.69624421 15.00080977 -1.69624421 15.00080977 0 13 C0.72660273 8.5976423 0.46630511 4.42342213 0 0 Z " fill="#7E67F9" transform="translate(590,336)"/>
<path d="M0 0 C0.66 0 1.32 0 2 0 C-0.21450343 7.19906515 -3.09554404 13.96515761 -6.21279907 20.81774902 C-7.07853085 22.72277559 -7.93683766 24.63100884 -8.79370117 26.54003906 C-11.49544888 32.54715701 -14.23639218 38.53009143 -17.078125 44.47265625 C-17.7740979 45.94569214 -17.7740979 45.94569214 -18.48413086 47.44848633 C-19.3425172 49.25881224 -20.21482276 51.06263264 -21.10375977 52.8581543 C-23.64729189 58.24724634 -25.01605017 63.01812229 -24 69 C-22.48815839 72.66949039 -21.03314068 73.8693091 -17.5 75.6875 C-16.30890625 76.31205078 -16.30890625 76.31205078 -15.09375 76.94921875 C-13.72966493 77.63380622 -12.36510456 78.31744772 -11 79 C-9.989375 79.7425 -8.97875 80.485 -7.9375 81.25 C-4.48638836 83.74486612 -0.88517828 85.78203399 2.859375 87.80078125 C4.76022031 88.86567087 6.52890052 90.00238118 8.3125 91.25 C10.74717627 92.8353706 12.26392086 93.3395671 15 94 C15.433125 94.45375 15.86625 94.9075 16.3125 95.375 C18.08709205 97.28010888 18.08709205 97.28010888 21.4375 98.4375 C24.93836022 99.97296501 26.36777307 101.36777307 29 104 C30.99172182 104.69100553 32.99161804 105.35902703 35 106 C35.41378906 106.43054688 35.82757813 106.86109375 36.25390625 107.3046875 C38.79263578 109.76958373 41.80999522 111.34520522 44.875 113.0625 C45.48730469 113.41376953 46.09960938 113.76503906 46.73046875 114.12695312 C50.08095972 116.02460808 53.42128459 117.59454086 57 119 C58.02104551 119.97850195 59.0206121 120.97980427 60 122 C63.80950489 124.53966993 67.78322901 126.26368253 72 128 C72 128.66 72 129.32 72 130 C68.11285811 129.41503965 65.33804847 128.26076121 61.96484375 126.26171875 C61.0011084 125.69509521 60.03737305 125.12847168 59.04443359 124.54467773 C58.01914551 123.93180908 56.99385742 123.31894043 55.9375 122.6875 C54.86838379 122.05593994 53.79926758 121.42437988 52.69775391 120.77368164 C49.46001582 118.85763123 46.22886325 116.93096212 43 115 C42.1013623 114.46310547 41.20272461 113.92621094 40.27685547 113.37304688 C36.17358709 110.91884429 32.07567133 108.45591376 27.98046875 105.98828125 C23.64887058 103.38245361 19.29814216 100.81028443 14.94165039 98.24633789 C10.28870806 95.50720217 5.64319139 92.75562637 1 90 C-0.54977539 89.08105957 -0.54977539 89.08105957 -2.13085938 88.14355469 C-5.27990773 86.27086161 -8.42202388 84.38702627 -11.5625 82.5 C-12.53227783 81.92459473 -13.50205566 81.34918945 -14.5012207 80.75634766 C-25.92993552 73.85350527 -25.92993552 73.85350527 -28.125 68 C-28.9041738 57.33612495 -19.67019815 43.70519989 -15.125 34.25 C-9.70499349 22.97045793 -4.65051426 11.6199051 0 0 Z " fill="#7868F9" transform="translate(35,278)"/>
<path d="M0 0 C0.33 0 0.66 0 1 0 C1.17184112 14.45827497 1.33831041 28.91660788 1.5 43.375 C1.51187725 44.43678341 1.5237545 45.49856682 1.53599167 46.59252548 C1.89386915 78.72967882 2.16378382 110.86057418 2 143 C1.34 142.67 0.68 142.34 0 142 C-0.89790108 127.1044625 -1.6046371 112.40209835 -0.12109375 97.51171875 C-0.02726686 94.79073887 -0.14514125 92.643763 -0.5 89.98999023 C-1.37505879 81.57138371 -1.00738064 73.09800809 -0.87890625 64.6484375 C-0.85456585 62.77943545 -0.83072435 60.91042684 -0.80735779 59.04141235 C-0.74490652 54.15224667 -0.6757322 49.26319897 -0.60510254 44.37414551 C-0.5340644 39.37318232 -0.4694607 34.37213632 -0.40429688 29.37109375 C-0.27578767 19.58063813 -0.14016763 9.79029517 0 0 Z " fill="#8A85FC" transform="translate(133,215)"/>
<path d="M0 0 C1 3 1 3 1 7 C1.66193359 7.3810791 2.32386719 7.7621582 3.00585938 8.15478516 C6.17097014 9.97750121 9.33558853 11.80107029 12.5 13.625 C13.0852243 13.96224091 13.67044861 14.29948181 14.27340698 14.64694214 C23.53033299 19.98255439 32.7590258 25.36464499 41.97485352 30.77099609 C47.29280051 33.87810126 52.63753067 36.93025081 58.0234375 39.91796875 C58.60397385 40.24044083 59.18451019 40.5629129 59.78263855 40.89515686 C62.59877928 42.45798424 65.41874578 44.01323736 68.24438477 45.55883789 C69.24526123 46.11176514 70.2461377 46.66469238 71.27734375 47.234375 C72.16671631 47.72131836 73.05608887 48.20826172 73.97241211 48.70996094 C76 50 76 50 77 52 C72.95714151 51.40675446 70.03217641 50.09151707 66.5 48.0625 C63.05219388 46.0916333 59.68556255 44.46591618 56 43 C54.54072202 42.20541932 53.10113459 41.37320555 51.6875 40.5 C50.99011719 40.0771875 50.29273438 39.654375 49.57421875 39.21875 C49.05472656 38.8165625 48.53523438 38.414375 48 38 C48 37.34 48 36.68 48 36 C47.38511719 35.81824219 46.77023438 35.63648438 46.13671875 35.44921875 C44.92435547 35.07216797 44.92435547 35.07216797 43.6875 34.6875 C42.88699219 34.44386719 42.08648437 34.20023437 41.26171875 33.94921875 C39 33 39 33 37.67602539 31.62792969 C35.60959918 29.62080223 33.4380379 28.4062878 30.921875 27.00390625 C29.92542969 26.44509766 28.92898437 25.88628906 27.90234375 25.31054688 C26.86207031 24.73369141 25.82179688 24.15683594 24.75 23.5625 C22.70308942 22.41803239 20.65621359 21.27350261 18.609375 20.12890625 C17.6402417 19.59007812 16.6711084 19.05125 15.67260742 18.49609375 C13.4259851 17.23846138 11.19669242 15.95704569 8.97265625 14.66015625 C6.03303176 13.01844743 3.19023925 12.03868255 0 11 C-1.33333333 9.66666667 -2.66666667 8.33333333 -4 7 C-3.67 6.01 -3.34 5.02 -3 4 C-2.34 4 -1.68 4 -1 4 C-0.67 2.68 -0.34 1.36 0 0 Z " fill="#7665F9" transform="translate(55,328)"/>
<path d="M0 0 C1.5234375 0.99609375 1.5234375 0.99609375 3 3 C3.02965793 5.7789478 2.91192151 8.31522654 2.625 11.0625 C2.17606018 15.66413319 1.91772812 19.97675074 2.48828125 24.578125 C3.30458462 31.6082327 2.85229489 38.63582422 2.5625 45.6875 C2.45585343 48.42043982 2.35348857 51.15351277 2.25390625 53.88671875 C2.22894073 54.55737869 2.20397522 55.22803864 2.17825317 55.91902161 C1.97237965 61.85295738 1.97414301 67.77483122 2.02905273 73.71240234 C1.98956303 78.18104422 1.58339503 82.57244841 1 87 C0.67 87 0.34 87 0 87 C-0.85007671 77.04677111 -1.14931357 67.17272401 -1.1328125 57.1875 C-1.1334885 55.7197264 -1.13446098 54.25195291 -1.13571167 52.78417969 C-1.137171 49.73875847 -1.13508919 46.69336694 -1.13037109 43.64794922 C-1.1246339 39.75679707 -1.12798901 35.86571333 -1.13394356 31.9745636 C-1.13756253 28.95647671 -1.13640513 25.93840598 -1.13381577 22.9203186 C-1.1331523 21.48507682 -1.13395446 20.04983353 -1.13629532 18.61459351 C-1.13884837 16.61285431 -1.13426414 14.6111099 -1.12939453 12.609375 C-1.12859894 11.47467773 -1.12780334 10.33998047 -1.12698364 9.17089844 C-1.00139227 6.03476626 -0.58577225 3.08051008 0 0 Z " fill="#598CFB" transform="translate(56,120)"/>
<path d="M0 0 C5.75 1.875 5.75 1.875 8 3 C8 3.66 8 4.32 8 5 C8.67546875 5.23976563 9.3509375 5.47953125 10.046875 5.7265625 C13.67620737 7.29159207 16.89957002 9.29177408 20.25 11.375 C25.12720836 14.36767027 29.90491151 17.09141953 35.265625 19.1484375 C37 20 37 20 38.4296875 21.48828125 C41.50775568 24.45149614 45.8838017 25.26473013 50 26 C53.00996197 25.52045841 53.00996197 25.52045841 55 24 C55.33 23.34 55.66 22.68 56 22 C56.66 22 57.32 22 58 22 C57.875 23.8125 57.875 23.8125 57 26 C53.29660354 28.55710708 50.56853657 29.38536755 46.11914062 28.63110352 C41.41731719 27.2308485 37.26923032 24.53119928 33.0625 22.0625 C32.0513916 21.48000488 31.0402832 20.89750977 29.99853516 20.29736328 C22.6295711 16.02595711 15.35927059 11.60550115 8.1796875 7.0234375 C6.17517256 5.74783709 4.14100291 4.51667097 2.0703125 3.3515625 C1.38710937 2.90554688 0.70390625 2.45953125 0 2 C0 1.34 0 0.68 0 0 Z " fill="#7D67F8" transform="translate(112,411)"/>
<path d="M0 0 C3.71129892 0.71162578 6.72798804 2.28657384 10.06640625 4.02734375 C10.65347855 4.33198044 11.24055084 4.63661713 11.84541321 4.95048523 C13.75335051 5.94191841 15.65801758 6.93944845 17.5625 7.9375 C18.87567396 8.62250121 20.18898854 9.30723293 21.50244141 9.99169922 C24.11922711 11.35623014 26.73462964 12.72336404 29.34912109 14.09228516 C32.52503799 15.75400957 35.70833709 17.40102079 38.89453125 19.04296875 C40.5548155 19.90339889 42.21498241 20.76405551 43.875 21.625 C44.60920166 22.00132568 45.34340332 22.37765137 46.09985352 22.76538086 C58.39558609 29.18675828 58.39558609 29.18675828 59.9375 33.8125 C59.958125 34.534375 59.97875 35.25625 60 36 C59.278125 35.236875 58.55625 34.47375 57.8125 33.6875 C54.0239357 30.06731634 49.77448167 27.83243548 45.1484375 25.43359375 C44.22337402 24.95269287 43.29831055 24.47179199 42.34521484 23.97631836 C41.36504395 23.4685083 40.38487305 22.96069824 39.375 22.4375 C37.31237511 21.36482344 35.24987717 20.29190275 33.1875 19.21875 C32.15367187 18.68121094 31.11984375 18.14367187 30.0546875 17.58984375 C25.49029997 15.21426098 20.93100694 12.82911061 16.375 10.4375 C15.60075684 10.03265381 14.82651367 9.62780762 14.02880859 9.21069336 C3.17338649 3.50742717 3.17338649 3.50742717 0 0 Z " fill="#6F75FA" transform="translate(208,233)"/>
<path d="M0 0 C-0.71027344 0.33773438 -1.42054688 0.67546875 -2.15234375 1.0234375 C-3.07144531 1.46945312 -3.99054688 1.91546875 -4.9375 2.375 C-5.85402344 2.81585938 -6.77054687 3.25671875 -7.71484375 3.7109375 C-10.12903802 4.79199162 -10.12903802 4.79199162 -11 7 C-12.62680135 7.59639541 -14.27796035 8.12690535 -15.9375 8.625 C-27.37931131 12.66154044 -34.97107306 20.93019085 -40.31640625 31.63671875 C-41.26462484 33.74130147 -42.16348462 35.84896045 -43 38 C-43.8826583 35.55313713 -44.08949787 34.29318267 -43.3203125 31.7734375 C-36.58834071 18.26549411 -26.04665706 9.65542579 -12.75 3.0625 C-11.96109375 2.65193359 -11.1721875 2.24136719 -10.359375 1.81835938 C-9.59625 1.43615234 -8.833125 1.05394531 -8.046875 0.66015625 C-7.36463867 0.31605713 -6.68240234 -0.02804199 -5.97949219 -0.38256836 C-3.60712626 -1.12254288 -2.31732653 -0.80083126 0 0 Z " fill="#7875FB" transform="translate(326,265)"/>
<path d="M0 0 C0.66 0.33 1.32 0.66 2 1 C-8.47012198 6.61611246 -18.97930123 12.05801359 -29.7668457 17.04272461 C-32.9298628 18.51044941 -35.904425 19.93912003 -38.8515625 21.81640625 C-39.91503906 22.40228516 -39.91503906 22.40228516 -41 23 C-41.99 22.67 -42.98 22.34 -44 22 C-43.08476562 21.51789063 -42.16953125 21.03578125 -41.2265625 20.5390625 C-40.0259405 19.90123206 -38.8254252 19.26320074 -37.625 18.625 C-37.02171875 18.30789063 -36.4184375 17.99078125 -35.796875 17.6640625 C-33.21449618 16.2867938 -31.08169419 15.08169419 -29 13 C-27.00059497 12.33155107 -25.00046312 11.66527569 -23 11 C-20.31247376 9.76859634 -17.68969358 8.41710785 -15.0625 7.0625 C-4.95601027 1.87943819 -4.95601027 1.87943819 0 0 Z " fill="#7370FB" transform="translate(384,273)"/>
<path d="M0 0 C0.66 0 1.32 0 2 0 C2.11531128 15.70362179 2.00090639 31.32509099 1 47 C0.67 47 0.34 47 0 47 C-0.16860231 41.59249197 -0.32904957 36.18482385 -0.48217773 30.77685547 C-0.53531349 28.93987637 -0.59061766 27.10295858 -0.64819336 25.26611328 C-0.73090444 22.61504332 -0.80563107 19.96384558 -0.87890625 17.3125 C-0.90594131 16.50071289 -0.93297638 15.68892578 -0.96083069 14.85253906 C-1.09135645 9.78509158 -0.7448693 5.01595487 0 0 Z " fill="#7C6FFB" transform="translate(278,332)"/>
<path d="M0 0 C2.1519437 3.22791555 2.20086443 4.28400809 2 8 C1.67 8 1.34 8 1 8 C0.67 24.83 0.34 41.66 0 59 C-0.33 59 -0.66 59 -1 59 C-1.02314716 51.60267133 -1.04092723 44.20535045 -1.05181217 36.80799294 C-1.05703579 33.37328438 -1.06412401 29.93860057 -1.07543945 26.50390625 C-1.08836035 22.55729465 -1.09323252 18.61069316 -1.09765625 14.6640625 C-1.10281754 13.42757965 -1.10797882 12.1910968 -1.11329651 10.91714478 C-1.11337204 9.77611298 -1.11344757 8.63508118 -1.11352539 7.45947266 C-1.115746 6.451315 -1.11796661 5.44315735 -1.12025452 4.40444946 C-1 2 -1 2 0 0 Z " fill="#639EFE" transform="translate(93,97)"/>
<path d="M0 0 C-2.39460097 1.59640065 -4.62114949 2.86170182 -7.1875 4.125 C-10.46090362 5.73763267 -13.72342145 7.36690284 -16.96875 9.03515625 C-17.66460205 9.39013184 -18.3604541 9.74510742 -19.07739258 10.11083984 C-20.45461024 10.8135507 -21.82956845 11.52071259 -23.2019043 12.23291016 C-27.40414103 14.36507696 -31.42922116 15.84396644 -36 17 C-32.13042865 12.50138923 -26.30488226 10.39276602 -21.08544922 7.79223633 C-19.13289919 6.81644763 -17.18950485 5.8239182 -15.24609375 4.83007812 C-14.0005219 4.20468862 -12.75444406 3.58030568 -11.5078125 2.95703125 C-10.38004395 2.38960205 -9.25227539 1.82217285 -8.09033203 1.23754883 C-5.08994686 0.03601996 -3.18490925 -0.28119621 0 0 Z " fill="#7074FB" transform="translate(380,238)"/>
<path d="M0 0 C2 2 2 2 2.24291992 4.1796875 C2.23881104 5.06914062 2.23470215 5.95859375 2.23046875 6.875 C2.22853516 7.86113281 2.22660156 8.84726563 2.22460938 9.86328125 C2.21236328 10.89839844 2.20011719 11.93351563 2.1875 13 C2.18685547 14.00417969 2.18621094 15.00835937 2.18554688 16.04296875 C2.1484466 22.41597115 1.76027529 28.67282982 1 35 C0.67 35 0.34 35 0 35 C-1.28410454 23.24550464 -0.74306213 11.77104768 0 0 Z " fill="#617EFA" transform="translate(56,172)"/>
<path d="M0 0 C0.99 0.33 1.98 0.66 3 1 C1.4840625 2.1446875 1.4840625 2.1446875 -0.0625 3.3125 C-6.68140041 8.97817134 -10.9512659 16.9298215 -14 25 C-14.8826583 22.55313713 -15.08949787 21.29318267 -14.3203125 18.7734375 C-10.66346954 11.43585064 -5.7756248 5.7756248 0 0 Z " fill="#6F6BFB" transform="translate(297,278)"/>
<path d="M0 0 C0.33 0 0.66 0 1 0 C0.42531331 6.68368496 -1.28125641 12.60051527 -3.4375 18.9375 C-3.75009766 19.89462891 -4.06269531 20.85175781 -4.38476562 21.83789062 C-4.68962891 22.74603516 -4.99449219 23.65417969 -5.30859375 24.58984375 C-5.58501709 25.41347412 -5.86144043 26.23710449 -6.14624023 27.08569336 C-7 29 -7 29 -9 30 C-6.36591058 19.89194954 -3.30296191 9.90888573 0 0 Z " fill="#6B6DFA" transform="translate(84,251)"/>
<path d="M0 0 C0.75 1.625 0.75 1.625 1 4 C-1.88898585 9.4868336 -5.22231996 11.75453587 -10.5625 14.4375 C-11.23474609 14.80037109 -11.90699219 15.16324219 -12.59960938 15.53710938 C-14.35542159 16.44901582 -16.17572794 17.2341793 -18 18 C-18.99 17.67 -19.98 17.34 -21 17 C-19.89140625 16.40832031 -18.7828125 15.81664062 -17.640625 15.20703125 C-16.17677463 14.40942047 -14.71324997 13.61121171 -13.25 12.8125 C-12.52039063 12.42513672 -11.79078125 12.03777344 -11.0390625 11.63867188 C-5.72598619 8.71647991 -1.99312969 5.97938908 0 0 Z " fill="#6B74FB" transform="translate(467,225)"/>
<path d="M0 0 C2.3125 -0.1875 2.3125 -0.1875 5 0 C6.02117123 0.97837075 7.01927033 1.98109406 8 3 C9.71390546 4.10397587 9.71390546 4.10397587 11.57421875 5.04296875 C12.24130859 5.39423828 12.90839844 5.74550781 13.59570312 6.10742188 C14.28599609 6.46384766 14.97628906 6.82027344 15.6875 7.1875 C16.38939453 7.55552734 17.09128906 7.92355469 17.81445312 8.30273438 C19.54037635 9.2067894 21.26984719 10.10406601 23 11 C20.56046162 11.88219596 19.38027239 12.14055379 16.90942383 11.22729492 C15.8192395 10.61011597 15.8192395 10.61011597 14.70703125 9.98046875 C13.91232422 9.53509766 13.11761719 9.08972656 12.29882812 8.63085938 C11.47833984 8.15455078 10.65785156 7.67824219 9.8125 7.1875 C8.98041016 6.72279297 8.14832031 6.25808594 7.29101562 5.77929688 C1.14363083 2.28726167 1.14363083 2.28726167 0 0 Z " fill="#7074FC" transform="translate(173,252)"/>
<path d="M0 0 C4.27638694 0.4751541 6.23351492 2.87883735 9 6 C12.43355477 10.38074229 12.27296006 13.63178541 12 19 C10.96711406 17.09313364 10.0733785 15.24287249 9.4453125 13.1640625 C7.84480571 8.00687397 5.72282095 5.3939447 1.42578125 2.12890625 C0.95527344 1.75636719 0.48476563 1.38382813 0 1 C0 0.67 0 0.34 0 0 Z " fill="#6475F9" transform="translate(457,204)"/>
<path d="M0 0 C1.44342388 4.33027163 -0.5191184 7.17747918 -2.3125 11.125 C-2.63412109 11.86621094 -2.95574219 12.60742188 -3.28710938 13.37109375 C-5.73353909 18.86676955 -5.73353909 18.86676955 -8 20 C-7.34 17.03 -6.68 14.06 -6 11 C-5.34 11 -4.68 11 -4 11 C-4 9.02 -4 7.04 -4 5 C-3.34 5 -2.68 5 -2 5 C-1.34 3.35 -0.68 1.7 0 0 Z " fill="#7167FA" transform="translate(66,302)"/>
<path d="M0 0 C0.33 1.32 0.66 2.64 1 4 C-0.95330868 5.03041513 -2.91281528 6.0490893 -4.875 7.0625 C-5.96554687 7.63097656 -7.05609375 8.19945312 -8.1796875 8.78515625 C-9.11039062 9.18605469 -10.04109375 9.58695312 -11 10 C-11.66 9.67 -12.32 9.34 -13 9 C-12.67 8.34 -12.34 7.68 -12 7 C-9.4375 6.375 -9.4375 6.375 -7 6 C-6.67 5.01 -6.34 4.02 -6 3 C-3.5 1.875 -3.5 1.875 -1 1 C-0.67 0.67 -0.34 0.34 0 0 Z " fill="#7A73FC" transform="translate(338,294)"/>
<path d="M0 0 C0.66 0 1.32 0 2 0 C1.40546697 12.66970387 1.40546697 12.66970387 -2 18 C-2.33 18 -2.66 18 -3 18 C-2.41509121 11.85845775 -1.45933748 5.99320151 0 0 Z " fill="#6A73F9" transform="translate(51,228)"/>
<path d="M0 0 C5.62899961 -0.55423996 8.7564422 1.14594341 13.375 4 C14.01566406 4.3815625 14.65632812 4.763125 15.31640625 5.15625 C16.88462755 6.09250152 18.44332645 7.04467157 20 8 C16.51371731 9.16209423 16.13629782 8.88616059 12.98828125 7.34765625 C12.23095703 6.98349609 11.47363281 6.61933594 10.69335938 6.24414062 C9.90767578 5.85419922 9.12199219 5.46425781 8.3125 5.0625 C7.51521484 4.67642578 6.71792969 4.29035156 5.89648438 3.89257812 C3.92653557 2.93709398 1.96150061 1.97267894 0 1 C0 0.67 0 0.34 0 0 Z " fill="#6A7BFB" transform="translate(148,203)"/>
<path d="M0 0 C0.33 0 0.66 0 1 0 C1 5.61 1 11.22 1 17 C0.01 17.33 -0.98 17.66 -2 18 C-2 14.37 -2 10.74 -2 7 C-1.67 7 -1.34 7 -1 7 C-0.67 4.69 -0.34 2.38 0 0 Z " fill="#6498FC" transform="translate(507,124)"/>
<path d="M0 0 C3.3 1.65 6.6 3.3 10 5 C10 5.99 10 6.98 10 8 C6.78147169 7.36934243 4.49198931 6.21979305 1.75 4.4375 C1.04359375 3.98246094 0.3371875 3.52742188 -0.390625 3.05859375 C-1.18726562 2.53458984 -1.18726562 2.53458984 -2 2 C-1.34 1.34 -0.68 0.68 0 0 Z " fill="#836EFC" transform="translate(105,364)"/>
<path d="M0 0 C1 3 1 3 1 7 C2.45833358 8.62514468 2.45833358 8.62514468 4 10 C4 10.66 4 11.32 4 12 C1.33333333 10.66666667 -1.33333333 9.33333333 -4 8 C-3.67 6.68 -3.34 5.36 -3 4 C-2.34 4 -1.68 4 -1 4 C-0.67 2.68 -0.34 1.36 0 0 Z " fill="#7E6EFC" transform="translate(55,328)"/>
<path d="M0 0 C0.33 0 0.66 0 1 0 C1.89604368 6.04829486 2.11269443 11.8894576 2 18 C0.68 17.67 -0.64 17.34 -2 17 C-2 16.34 -2 15.68 -2 15 C-1.34 15 -0.68 15 0 15 C0 10.05 0 5.1 0 0 Z " fill="#8579FC" transform="translate(278,314)"/>
<path d="M0 0 C-2.39509338 2.89932357 -4.31245243 3.50168276 -8 4 C-8 4.66 -8 5.32 -8 6 C-9.875 6.625 -9.875 6.625 -12 7 C-12.66 6.34 -13.32 5.68 -14 5 C-12.61217515 4.1533966 -11.21430603 3.32324661 -9.8125 2.5 C-9.03519531 2.0359375 -8.25789063 1.571875 -7.45703125 1.09375 C-4.75896614 -0.10729647 -2.9193018 -0.20741043 0 0 Z " fill="#826FFB" transform="translate(496,365)"/>
<path d="M0 0 C1.0625 1.8125 1.0625 1.8125 2 4 C1.67 4.99 1.34 5.98 1 7 C0.34 7 -0.32 7 -1 7 C-1 10.63 -1 14.26 -1 18 C-1.33 18 -1.66 18 -2 18 C-2.054138 15.75026553 -2.09285491 13.50015617 -2.125 11.25 C-2.14820313 9.99703125 -2.17140625 8.7440625 -2.1953125 7.453125 C-2.01537302 4.27179508 -1.68998582 2.63478104 0 0 Z " fill="#756DFB" transform="translate(281,304)"/>
<path d="M0 0 C2.83374881 3.20336822 3.5205537 5.78087253 4 10 C3.01 10 2.02 10 1 10 C-1.125 3.375 -1.125 3.375 0 0 Z " fill="#7D77FC" transform="translate(528,285)"/>
<path d="M0 0 C-0.99 0.66 -1.98 1.32 -3 2 C-5.763718 4.25609633 -8.47666237 6.47666237 -11 9 C-10.71180351 5.54164207 -10.21034962 4.21619267 -7.75 1.6875 C-4.7990854 -0.12328851 -3.38489309 -0.38684492 0 0 Z " fill="#6777F9" transform="translate(146,203)"/>
<path d="M0 0 C0.56203125 0.22558594 1.1240625 0.45117188 1.703125 0.68359375 C0.10689844 1.71679856 -1.49916606 2.73481804 -3.109375 3.74609375 C-4.44935547 4.59880859 -4.44935547 4.59880859 -5.81640625 5.46875 C-8.296875 6.68359375 -8.296875 6.68359375 -11.296875 5.68359375 C-9.89135201 4.64747104 -8.47195806 3.6301445 -7.046875 2.62109375 C-6.25796875 2.05261719 -5.4690625 1.48414063 -4.65625 0.8984375 C-2.296875 -0.31640625 -2.296875 -0.31640625 0 0 Z " fill="#7562F9" transform="translate(388.296875,425.31640625)"/>
<path d="M0 0 C-1.93254772 2.0245738 -3.63158688 3.42105792 -6 5 C-6.66 5.99 -7.32 6.98 -8 8 C-8.36075949 3.55063291 -8.36075949 3.55063291 -6.8125 1.1875 C-4.44017475 -0.36678206 -2.77958655 -0.22537188 0 0 Z " fill="#4CA6FC" transform="translate(65,12)"/>
<path d="M0 0 C-4.95 2.475 -4.95 2.475 -10 5 C-10.33 4.34 -10.66 3.68 -11 3 C-4.5 -1.125 -4.5 -1.125 0 0 Z " fill="#6D7CFB" transform="translate(447,205)"/>
<path d="M0 0 C3.28220895 1.64110448 3.74570789 4.69322988 5 8 C5 8.99 5 9.98 5 11 C4.34 11 3.68 11 3 11 C2.49384702 9.73160474 1.99530901 8.46016898 1.5 7.1875 C1.2215625 6.47980469 0.943125 5.77210938 0.65625 5.04296875 C0 3 0 3 0 0 Z " fill="#7568F9" transform="translate(543,324)"/>
<path d="M0 0 C-0.8125 2.4375 -0.8125 2.4375 -2 5 C-2.99 5.33 -3.98 5.66 -5 6 C-5.66 5.34 -6.32 4.68 -7 4 C-2.25 0 -2.25 0 0 0 Z " fill="#8A6FFB" transform="translate(350,489)"/>
<path d="M0 0 C0.33 1.32 0.66 2.64 1 4 C-0.65 4.66 -2.3 5.32 -4 6 C-4.66 5.34 -5.32 4.68 -6 4 C-4.02 2.68 -2.04 1.36 0 0 Z " fill="#8770FB" transform="translate(453,429)"/>
<path d="M0 0 C3.91211733 1.15585285 6.8745041 2.35534962 10 5 C5.2482602 4.56802365 3.07999946 3.67230705 0 0 Z " fill="#7170FB" transform="translate(212,273)"/>
<path d="M0 0 C1.65 0 3.3 0 5 0 C5 0.33 5 0.66 5 1 C3.35 1 1.7 1 0 1 C0 0.67 0 0.34 0 0 Z " fill="#6CA5F7" transform="translate(294,101)"/>
<path d="M0 0 C0.33 0.66 0.66 1.32 1 2 C-0.32 1.67 -1.64 1.34 -3 1 C-2.01 0.67 -1.02 0.34 0 0 Z " fill="#6CA8F6" transform="translate(292,100)"/>
<path d="M0 0 C4 1 4 1 4 1 Z " fill="#6DA7F7" transform="translate(308,101)"/>
<path d="" fill="#9C85F2" transform="translate(0,0)"/>
<path d="" fill="#9B85F5" transform="translate(0,0)"/>
<path d="" fill="#9C85F4" transform="translate(0,0)"/>
<path d="" fill="#9E86F8" transform="translate(0,0)"/>
<path d="" fill="#9C85F9" transform="translate(0,0)"/>
<path d="" fill="#9D85F8" transform="translate(0,0)"/>
<path d="" fill="#9C84FB" transform="translate(0,0)"/>
<path d="" fill="#9D87FA" transform="translate(0,0)"/>
<path d="" fill="#9C86FB" transform="translate(0,0)"/>
<path d="" fill="#9688FC" transform="translate(0,0)"/>
<path d="" fill="#8892F9" transform="translate(0,0)"/>
<path d="M0 0 C3 1 3 1 3 1 Z " fill="#6FA9F7" transform="translate(316,100)"/>
<path d="M0 0 C3 1 3 1 3 1 Z " fill="#6AA8F5" transform="translate(245,92)"/>
<path d="" fill="#9F86F9" transform="translate(0,0)"/>
<path d="" fill="#9F87FB" transform="translate(0,0)"/>
<path d="" fill="#9D87FA" transform="translate(0,0)"/>
<path d="" fill="#9E87FB" transform="translate(0,0)"/>
<path d="" fill="#9C87FB" transform="translate(0,0)"/>
<path d="" fill="#9E88FB" transform="translate(0,0)"/>
<path d="" fill="#9B88FB" transform="translate(0,0)"/>
<path d="" fill="#9B87FB" transform="translate(0,0)"/>
<path d="M0 0 C2 1 2 1 2 1 Z " fill="#9883F5" transform="translate(122,372)"/>
<path d="" fill="#9B87FA" transform="translate(0,0)"/>
<path d="M0 0 C2 1 2 1 2 1 Z " fill="#9883FC" transform="translate(96,357)"/>
<path d="M0 0 C2 1 2 1 2 1 Z " fill="#9987FA" transform="translate(517,348)"/>
<path d="M0 0 C2 1 2 1 2 1 Z " fill="#918DFE" transform="translate(222,281)"/>
<path d="" fill="#8D8BFC" transform="translate(0,0)"/>
<path d="M0 0 C2 1 2 1 2 1 Z " fill="#8E8FFF" transform="translate(173,255)"/>
<path d="" fill="#8D8FFD" transform="translate(0,0)"/>
<path d="M0 0 C2 1 2 1 2 1 Z " fill="#72A7F7" transform="translate(320,139)"/>
<path d="M0 0 C2 1 2 1 2 1 Z " fill="#71A5FC" transform="translate(271,138)"/>
<path d="M0 0 C2 1 2 1 2 1 Z " fill="#71A9FA" transform="translate(376,123)"/>
<path d="M0 0 C2 1 2 1 2 1 Z " fill="#6EA8F8" transform="translate(305,101)"/>
<path d="M0 0 C2 1 2 1 2 1 Z " fill="#6BA9F8" transform="translate(351,93)"/>
<path d="" fill="#967FEB" transform="translate(0,0)"/>
<path d="" fill="#9B85E3" transform="translate(0,0)"/>
<path d="" fill="#9681EE" transform="translate(0,0)"/>
<path d="" fill="#9D84EE" transform="translate(0,0)"/>
<path d="" fill="#9A84EF" transform="translate(0,0)"/>
<path d="" fill="#9B85F2" transform="translate(0,0)"/>
<path d="" fill="#9C84F3" transform="translate(0,0)"/>
<path d="" fill="#9B81F3" transform="translate(0,0)"/>
<path d="" fill="#9C86F3" transform="translate(0,0)"/>
<path d="" fill="#9B82F0" transform="translate(0,0)"/>
<path d="" fill="#9D85F6" transform="translate(0,0)"/>
<path d="" fill="#9C84F6" transform="translate(0,0)"/>
<path d="" fill="#A285FF" transform="translate(0,0)"/>
<path d="" fill="#9E88FA" transform="translate(0,0)"/>
<path d="" fill="#A080FB" transform="translate(0,0)"/>
<path d="" fill="#9B81F8" transform="translate(0,0)"/>
<path d="" fill="#9B84F9" transform="translate(0,0)"/>
<path d="" fill="#A088FC" transform="translate(0,0)"/>
<path d="" fill="#9E83FD" transform="translate(0,0)"/>
<path d="" fill="#A088FD" transform="translate(0,0)"/>
<path d="" fill="#9C83FC" transform="translate(0,0)"/>
<path d="" fill="#9C82F4" transform="translate(0,0)"/>
<path d="" fill="#9E88F8" transform="translate(0,0)"/>
<path d="" fill="#9E85FA" transform="translate(0,0)"/>
<path d="" fill="#9D83F7" transform="translate(0,0)"/>
<path d="" fill="#9B85F3" transform="translate(0,0)"/>
<path d="" fill="#9E88FA" transform="translate(0,0)"/>
<path d="" fill="#9D87FA" transform="translate(0,0)"/>
<path d="" fill="#9C86FA" transform="translate(0,0)"/>
<path d="" fill="#9D84F5" transform="translate(0,0)"/>
<path d="" fill="#9881F4" transform="translate(0,0)"/>
<path d="" fill="#9E89FA" transform="translate(0,0)"/>
<path d="" fill="#9B87FB" transform="translate(0,0)"/>
<path d="" fill="#9A83F7" transform="translate(0,0)"/>
<path d="" fill="#9B86FB" transform="translate(0,0)"/>
<path d="" fill="#9B84F6" transform="translate(0,0)"/>
<path d="" fill="#9982F8" transform="translate(0,0)"/>
<path d="" fill="#9D88FA" transform="translate(0,0)"/>
<path d="" fill="#9D87F5" transform="translate(0,0)"/>
<path d="" fill="#9883F7" transform="translate(0,0)"/>
<path d="" fill="#9B82F6" transform="translate(0,0)"/>
<path d="" fill="#9A83F7" transform="translate(0,0)"/>
<path d="" fill="#9682F2" transform="translate(0,0)"/>
<path d="" fill="#9881F5" transform="translate(0,0)"/>
<path d="" fill="#9B85F4" transform="translate(0,0)"/>
<path d="" fill="#9A8AF8" transform="translate(0,0)"/>
<path d="" fill="#9883F5" transform="translate(0,0)"/>
<path d="" fill="#9D87F5" transform="translate(0,0)"/>
<path d="" fill="#9985F5" transform="translate(0,0)"/>
<path d="" fill="#9784FA" transform="translate(0,0)"/>
<path d="" fill="#9985F1" transform="translate(0,0)"/>
<path d="" fill="#9A85F8" transform="translate(0,0)"/>
<path d="" fill="#9787F9" transform="translate(0,0)"/>
<path d="" fill="#9B88F6" transform="translate(0,0)"/>
<path d="" fill="#9782F4" transform="translate(0,0)"/>
<path d="" fill="#9783F8" transform="translate(0,0)"/>
<path d="" fill="#9584FB" transform="translate(0,0)"/>
<path d="" fill="#9A87F7" transform="translate(0,0)"/>
<path d="" fill="#9886E7" transform="translate(0,0)"/>
<path d="" fill="#9782F8" transform="translate(0,0)"/>
<path d="" fill="#9A88F9" transform="translate(0,0)"/>
<path d="" fill="#9D89FB" transform="translate(0,0)"/>
<path d="" fill="#9C89FA" transform="translate(0,0)"/>
<path d="" fill="#9987FC" transform="translate(0,0)"/>
<path d="" fill="#9588FB" transform="translate(0,0)"/>
<path d="" fill="#9487FF" transform="translate(0,0)"/>
<path d="" fill="#9689FF" transform="translate(0,0)"/>
<path d="" fill="#9388FE" transform="translate(0,0)"/>
<path d="" fill="#938AFD" transform="translate(0,0)"/>
<path d="" fill="#968EF9" transform="translate(0,0)"/>
<path d="" fill="#948DF6" transform="translate(0,0)"/>
<path d="" fill="#9288F8" transform="translate(0,0)"/>
<path d="" fill="#938DFD" transform="translate(0,0)"/>
<path d="" fill="#948DFC" transform="translate(0,0)"/>
<path d="" fill="#948AFB" transform="translate(0,0)"/>
<path d="" fill="#938DFD" transform="translate(0,0)"/>
<path d="" fill="#938CFA" transform="translate(0,0)"/>
<path d="" fill="#8F8CF6" transform="translate(0,0)"/>
<path d="" fill="#908AFB" transform="translate(0,0)"/>
<path d="" fill="#8F8EFB" transform="translate(0,0)"/>
<path d="" fill="#928DFA" transform="translate(0,0)"/>
<path d="" fill="#928CFB" transform="translate(0,0)"/>
<path d="" fill="#918CFD" transform="translate(0,0)"/>
<path d="" fill="#918EFB" transform="translate(0,0)"/>
<path d="" fill="#928CF8" transform="translate(0,0)"/>
<path d="" fill="#8E8DF8" transform="translate(0,0)"/>
<path d="" fill="#918DFD" transform="translate(0,0)"/>
<path d="" fill="#938DFA" transform="translate(0,0)"/>
<path d="" fill="#8F8EFC" transform="translate(0,0)"/>
<path d="" fill="#938FF8" transform="translate(0,0)"/>
<path d="" fill="#918EFB" transform="translate(0,0)"/>
<path d="" fill="#8C8FFA" transform="translate(0,0)"/>
<path d="" fill="#8A8EF7" transform="translate(0,0)"/>
<path d="" fill="#8E8EFC" transform="translate(0,0)"/>
<path d="" fill="#8B8FF9" transform="translate(0,0)"/>
<path d="" fill="#8C91FD" transform="translate(0,0)"/>
<path d="" fill="#9192FC" transform="translate(0,0)"/>
<path d="" fill="#8A8DFF" transform="translate(0,0)"/>
<path d="" fill="#9292FB" transform="translate(0,0)"/>
<path d="" fill="#8C8DFA" transform="translate(0,0)"/>
<path d="" fill="#8A91FD" transform="translate(0,0)"/>
<path d="" fill="#878FF6" transform="translate(0,0)"/>
<path d="" fill="#8A94FB" transform="translate(0,0)"/>
<path d="" fill="#8493FB" transform="translate(0,0)"/>
<path d="" fill="#8696FA" transform="translate(0,0)"/>
<path d="" fill="#8995F6" transform="translate(0,0)"/>
<path d="" fill="#8797FA" transform="translate(0,0)"/>
<path d="" fill="#8C99F7" transform="translate(0,0)"/>
<path d="" fill="#7F94FC" transform="translate(0,0)"/>
<path d="" fill="#7C98F8" transform="translate(0,0)"/>
<path d="" fill="#72A5F9" transform="translate(0,0)"/>
<path d="" fill="#71A5FA" transform="translate(0,0)"/>
<path d="" fill="#74A3FC" transform="translate(0,0)"/>
<path d="" fill="#71A6F8" transform="translate(0,0)"/>
<path d="" fill="#6DA6F7" transform="translate(0,0)"/>
<path d="" fill="#6DA6FB" transform="translate(0,0)"/>
<path d="" fill="#72A4FC" transform="translate(0,0)"/>
<path d="" fill="#6EA5FD" transform="translate(0,0)"/>
<path d="" fill="#6EA7FC" transform="translate(0,0)"/>
<path d="" fill="#6FA8FA" transform="translate(0,0)"/>
<path d="" fill="#6CAAFE" transform="translate(0,0)"/>
<path d="" fill="#6DA8F8" transform="translate(0,0)"/>
<path d="" fill="#6CA7F5" transform="translate(0,0)"/>
<path d="" fill="#6BA7F6" transform="translate(0,0)"/>
<path d="" fill="#6EA9F8" transform="translate(0,0)"/>
<path d="" fill="#6BAAFA" transform="translate(0,0)"/>
<path d="" fill="#6DA9F5" transform="translate(0,0)"/>
<path d="" fill="#6BA9FE" transform="translate(0,0)"/>
<path d="" fill="#68A8F8" transform="translate(0,0)"/>
<path d="" fill="#6AA9F7" transform="translate(0,0)"/>
<path d="" fill="#6CA9F6" transform="translate(0,0)"/>
<path d="" fill="#6CACFF" transform="translate(0,0)"/>
<path d="" fill="#6AACFB" transform="translate(0,0)"/>
<path d="" fill="#6AA9F6" transform="translate(0,0)"/>
<path d="" fill="#6DAFFD" transform="translate(0,0)"/>
<path d="" fill="#6AAFFE" transform="translate(0,0)"/>
<path d="" fill="#67AFFB" transform="translate(0,0)"/>
<path d="" fill="#69AEF7" transform="translate(0,0)"/>
<path d="" fill="#65ADF7" transform="translate(0,0)"/>
<path d="" fill="#69ADF8" transform="translate(0,0)"/>
<path d="" fill="#66AEF9" transform="translate(0,0)"/>
<path d="" fill="#6AABF0" transform="translate(0,0)"/>
<path d="" fill="#6AAFF6" transform="translate(0,0)"/>
<path d="" fill="#66B1F5" transform="translate(0,0)"/>
<path d="" fill="#67AFF5" transform="translate(0,0)"/>
<path d="" fill="#68AFF3" transform="translate(0,0)"/>
<path d="" fill="#68A9E6" transform="translate(0,0)"/>
<path d="" fill="#69A8E4" transform="translate(0,0)"/>
<path d="" fill="#6BADEE" transform="translate(0,0)"/>
<path d="" fill="#68ACEE" transform="translate(0,0)"/>
</svg>
